<svg width="36" height="36" viewBox="0 0 36 36" fill="none" xmlns="http://www.w3.org/2000/svg">
<g clip-path="url(#clip0_2703_11183)">
<path d="M19.0477 13.4528C19.2578 13.2428 19.2578 12.9026 19.0477 12.6929C18.8375 12.483 18.4972 12.483 18.2871 12.6929C18.0768 12.9026 18.0768 13.2428 18.2871 13.4528C18.4972 13.6625 18.8375 13.6625 19.0477 13.4528Z" fill="#221E1F"/>
<path d="M17.1506 13.8283C16.9404 14.038 16.9404 14.3782 17.1506 14.5881C17.3604 14.7978 17.701 14.7978 17.9112 14.5881C18.1211 14.3782 18.1211 14.038 17.9112 13.8283C17.701 13.6184 17.3604 13.6184 17.1506 13.8283Z" fill="#221E1F"/>
<path d="M20.4507 14.1078C20.1219 13.7793 19.589 13.7796 19.2604 14.1078L18.5604 14.8071C18.2315 15.1356 18.2315 15.6679 18.5604 15.9961L19.3289 16.7641C19.6577 17.0926 20.1906 17.0923 20.5192 16.7641L21.2192 16.0648C21.548 15.7363 21.548 15.2039 21.2192 14.8755L20.4507 14.1078Z" fill="#221E1F"/>
<path d="M27.1031 11.5034C27.9914 9.81359 26.7349 8.82657 25.8712 8.01642C24.4877 6.71734 23.1079 6.15572 21.5319 7.95448C19.9569 9.75334 20.9576 11.8395 22.3982 12.8692C23.8395 13.8989 26.2137 13.1927 27.1031 11.5034ZM24.7168 10.8104C24.1617 10.1459 25.1993 8.93932 25.8503 9.65978C27.0494 10.9872 25.2728 11.475 24.7168 10.8104Z" fill="#221E1F"/>
<path d="M17.9572 0.124207C8.03975 0.124207 0 8.1554 0 18.0615C0 27.9683 8.03975 36 17.9572 36C27.8741 36 35.9138 27.9683 35.9138 18.0615C35.9138 8.1554 27.8741 0.124207 17.9572 0.124207ZM27.6675 21.0014C25.795 19.7652 24.725 18.7206 23.7929 16.8479C23.1555 18.131 21.6672 20.039 19.1567 21.5399C17.9035 25.4347 11.9415 32.8885 10.012 31.8319C9.44069 31.5194 9.33219 31.1077 9.46121 30.683C9.59959 29.6183 11.8045 27.1712 11.8045 27.1712C11.8045 27.1712 11.8511 27.6847 12.5564 28.7664C11.6248 25.8772 14.0957 22.3123 14.7503 21.0988C15.7789 20.7713 15.8534 19.4521 15.8534 19.4521C15.9192 17.4128 15.0073 15.9364 14.1236 15.0534C14.7585 15.8275 14.964 16.9973 14.9942 18.0687C14.9942 18.0703 14.9942 18.0724 14.9942 18.0746C14.9974 18.1957 14.9974 18.3144 14.9969 18.4329C14.9668 19.3197 14.6982 20.5447 14.1236 20.5447L14.1253 20.5525C13.5345 20.5272 12.8052 20.6531 12.1535 20.8567L10.7129 21.2006C10.7129 21.2006 11.4812 21.1655 11.8961 21.5235C11.434 22.2751 10.4071 23.2079 9.26176 23.7378C7.5953 24.5098 7.11635 22.9737 7.96245 21.9747C8.1702 21.7305 8.38004 21.5247 8.57845 21.356C8.45075 21.224 8.37021 21.0473 8.34904 20.8229C8.34885 20.8218 8.34799 20.8206 8.34772 20.8195C8.23156 20.3098 8.29564 19.6481 9.01761 18.5964C9.16016 18.3737 9.33105 18.1455 9.53578 17.9137C9.54232 17.9058 9.5478 17.8984 9.55442 17.8907C9.56321 17.88 9.57304 17.8699 9.58212 17.8595C9.5873 17.8537 9.59222 17.848 9.5977 17.842C9.64922 17.7834 9.70405 17.7262 9.76266 17.671C10.623 16.7906 11.9821 15.8751 14.1236 15.0534C16.6211 11.3863 17.5358 10.6984 17.5358 10.6984C17.8122 10.416 18.2955 10.0649 18.4732 9.97534C17.1689 7.71144 16.9056 4.52 17.2473 3.65999C17.2196 3.70656 17.1941 3.75413 17.173 3.80343C17.2996 3.50892 17.3845 3.41422 17.5161 3.25926C17.8723 2.83832 19.0795 2.61775 19.513 3.50948C19.7439 3.9849 19.7875 4.60073 19.7799 5.06248C18.8238 5.0127 17.9567 6.10311 17.9567 6.10311C17.9567 6.10311 18.7485 5.72985 19.7322 5.72325C19.7322 5.72325 19.9944 5.951 20.3216 6.37874C19.8799 7.2073 19.1537 8.96254 19.6796 10.8052C19.7667 11.1684 19.8985 11.4804 20.0621 11.746C20.0683 11.7574 20.0735 11.7689 20.0799 11.7807C20.093 11.7979 20.1048 11.8121 20.1171 11.828C20.9865 13.1356 22.5801 13.2886 22.5801 13.2886C21.8299 12.9146 21.2189 12.3191 20.821 11.5971C20.6142 11.2109 20.4876 10.8848 20.4098 10.6276C19.9878 8.99956 20.609 8.04918 20.9646 7.41202C21.7828 6.14418 23.2734 5.3767 24.8755 5.55951C27.1239 5.81579 28.7389 7.84447 28.4818 10.09C28.3251 11.4618 27.5059 12.5966 26.3803 13.2142C26.651 13.946 26.3617 14.8334 26.3617 14.8334C27.0434 15.69 27.0734 16.1839 27.0499 16.6426C26.1835 16.497 25.3418 17.0811 25.3418 17.0811C25.3418 17.0811 27.0132 16.6825 27.9843 17.5477C28.6158 18.2262 29.037 18.8394 29.288 19.2923C29.6474 19.9382 31.3166 19.9842 31.1265 21.1458C30.9363 22.3057 29.6633 22.3167 27.6675 21.0014Z" fill="#221E1F"/>
</g>
<defs>
<clipPath id="clip0_2703_11183">
<rect width="36" height="36" fill="white"/>
</clipPath>
</defs>
</svg>
