<svg width="37" height="36" viewBox="0 0 37 36" fill="none" xmlns="http://www.w3.org/2000/svg">
<g clip-path="url(#clip0_2703_10965)">
<mask id="mask0_2703_10965" style="mask-type:alpha" maskUnits="userSpaceOnUse" x="0" y="0" width="37" height="36">
<path d="M18.5 36C28.4411 36 36.5 27.9411 36.5 18C36.5 8.05888 28.4411 0 18.5 0C8.55888 0 0.5 8.05888 0.5 18C0.5 27.9411 8.55888 36 18.5 36Z" fill="black"/>
</mask>
<g mask="url(#mask0_2703_10965)">
<path d="M18.5 36C28.4411 36 36.5 27.9411 36.5 18C36.5 8.05888 28.4411 0 18.5 0C8.55888 0 0.5 8.05888 0.5 18C0.5 27.9411 8.55888 36 18.5 36Z" fill="black"/>
<path d="M30.4016 31.504L14.3284 10.8H11.3V25.194H13.7228V13.8767L28.4998 32.969C29.1666 32.5228 29.8018 32.033 30.4016 31.504Z" fill="url(#paint0_linear_2703_10965)"/>
<path d="M25.9 10.8H23.5V25.2H25.9V10.8Z" fill="url(#paint1_linear_2703_10965)"/>
</g>
</g>
<defs>
<linearGradient id="paint0_linear_2703_10965" x1="22.3" y1="23.3" x2="29.4001" y2="32.1" gradientUnits="userSpaceOnUse">
<stop stop-color="white"/>
<stop offset="1" stop-color="white" stop-opacity="0"/>
</linearGradient>
<linearGradient id="paint1_linear_2703_10965" x1="24.7" y1="10.8" x2="24.6598" y2="21.375" gradientUnits="userSpaceOnUse">
<stop stop-color="white"/>
<stop offset="1" stop-color="white" stop-opacity="0"/>
</linearGradient>
<clipPath id="clip0_2703_10965">
<rect width="36" height="36" fill="white" transform="translate(0.5)"/>
</clipPath>
</defs>
</svg>
