<svg width="37" height="36" viewBox="0 0 37 36" fill="none" xmlns="http://www.w3.org/2000/svg">
<g clip-path="url(#clip0_2703_11041)">
<path d="M18.2857 0.000294458C16.8012 0.00711655 15.3836 0.132334 14.1363 0.35064C10.4618 0.992716 9.79461 2.33662 9.79461 4.81504V8.08828H18.478V9.17935H9.79461H6.53583C4.01223 9.17935 1.80247 10.6796 1.11128 13.5337C0.314016 16.805 0.278653 18.8464 1.11128 22.2623C1.72853 24.8049 3.20259 26.6166 5.72621 26.6166H8.71173V22.6926C8.71173 19.8579 11.1915 17.3574 14.1363 17.3574H22.8095C25.2239 17.3574 27.1513 15.3913 27.1513 12.9931V4.81504C27.1513 2.48751 25.1658 0.739096 22.8095 0.35064C21.3178 0.105046 19.7701 -0.00652772 18.2857 0.000294458ZM13.5898 2.63288C14.4867 2.63288 15.2192 3.36919 15.2192 4.27451C15.2192 5.17662 14.4867 5.90611 13.5898 5.90611C12.6896 5.90611 11.9604 5.17662 11.9604 4.27451C11.9604 3.36919 12.6896 2.63288 13.5898 2.63288Z" fill="url(#paint0_linear_2703_11041)"/>
<path d="M28.2339 9.17935V12.9931C28.2339 15.9499 25.6993 18.4385 22.8093 18.4385H14.1361C11.7603 18.4385 9.79443 20.4496 9.79443 22.8028V30.9809C9.79443 33.3083 11.8407 34.6775 14.1361 35.3452C16.8847 36.1444 19.5206 36.2891 22.8093 35.3452C24.9953 34.7191 27.151 33.4593 27.151 30.9809V27.7076H18.4778V26.6166H27.151H31.4926C34.0162 26.6166 34.9567 24.8755 35.8342 22.2623C36.741 19.572 36.7023 16.9848 35.8342 13.5336C35.2105 11.0488 34.0194 9.17935 31.4926 9.17935H28.2339ZM23.3557 29.8897C24.2559 29.8897 24.9852 30.6193 24.9852 31.5214C24.9852 32.4268 24.2559 33.163 23.3557 33.163C22.4589 33.163 21.7264 32.4268 21.7264 31.5214C21.7264 30.6193 22.4589 29.8897 23.3557 29.8897Z" fill="url(#paint1_linear_2703_11041)"/>
</g>
<defs>
<linearGradient id="paint0_linear_2703_11041" x1="0.5" y1="3.12218e-08" x2="20.3375" y2="17.091" gradientUnits="userSpaceOnUse">
<stop stop-color="#5A9FD4"/>
<stop offset="1" stop-color="#306998"/>
</linearGradient>
<linearGradient id="paint1_linear_2703_11041" x1="23.1471" y1="31.2462" x2="16.0679" y2="21.2165" gradientUnits="userSpaceOnUse">
<stop stop-color="#FFD43B"/>
<stop offset="1" stop-color="#FFE873"/>
</linearGradient>
<clipPath id="clip0_2703_11041">
<rect width="36" height="36" fill="white" transform="translate(0.5)"/>
</clipPath>
</defs>
</svg>
